<?xml version="1.0" encoding="utf-8"?>
<!-- Generator: Adobe Illustrator 22.0.0, SVG Export Plug-In . SVG Version: 6.00 Build 0)  -->
<svg version="1.1" id="图层_1" xmlns="http://www.w3.org/2000/svg" xmlns:xlink="http://www.w3.org/1999/xlink" x="0px" y="0px"
	 viewBox="0 0 595.3 841.9" style="enable-background:new 0 0 595.3 841.9;" xml:space="preserve">
<style type="text/css">
	.st0{fill:none;stroke:#000000;stroke-miterlimit:10;}
</style>
<path class="st0" d="M221.3,338.4c0,0,15.4,6.7,26.3,21.8c-10.4-18.6-35.4-25.8-35.4-25.8L221.3,338.4l-8.7,15.8l10.2,6.7
	c0,0,7,3.5,3,9.6s3.9,25.8,3.9,25.8s-2.8-8.4-3.4-13.5s-0.6-4.3,0.9-4.8s12.6,5.1,12.6,5.1s-4.4,1.5-1.3,9.8s4.1,4.9,5.4,1.5
	s0.1-9,0.1-9c3.6,0.7,4.7,5,4.6,10.9c0.6-6.6-0.7-12.4-3.6-17.4c0,0-19-16-19.5-13.4s-1.1,5.1-1.8,11.6s3.3,17,6.3,22.3
	s9.3,8.5,13.1,7s4.5-8.4,5-11.4s0.9-13-4-18.9s-37.4-21.7-36.3-22.9s9,4.1,22,10.1s18.8,17.5,10.4,5.9s-32.9-15.3-30-16.5
	c2.9-1.2,27.5,12.8,28.8,13.3s12.4,20,12.4,20s-6.6-12.6-10.1-18.6s-29-15.9-29-15.9l-6.3,0.5l4.5,6.5l-0.8,4.3
	c0,0,5.9,26.7,4.9,28.4c-13.1,22.1,40.3,48.6,40.3,48.6L222,469l17.5,10.7l-21.4-7.6l-10.5,9.1l3.6-5.7l-5.3-1l-7.7,11.7
	c0,0-2.4,5.6-6.7,10.4c-6.9,7.6-5.8,7.4-3.9,7.6s8.1,3.5,8.1,3.5l-2.5,1.8l-8,0.9L77.8,657.4l105.6-145.5l-105,148.3l108-148.7
	L79,662.6l111.3-152.5c0,0-2.6,2.8,0.4,2.6s10.2-4.2,10.9-7.8l4.1-3.1c0,0-6.3,10.1-10.4,12.3s-0.4,4.1-3.1,6.4s-2.9,7.6-8.5,11.7
	s-14.3,26.5-7.7,20.8s29.6-50.1,29.6-50.1s-1.6,2.2-4.5,12.8s-17.1,18.8-30.9,38.4s-26.4,61.5-25.6,59.8s18.4-42.9,15.9-42.4
	s-8,20.9-15.3,38s-10.9,38.2,1.6,30.9c-11.8,6.5-6.8-14.6-6.8-14.6s3.3-12.3,3.9-18.7s11.4-32.4,14.8-36.8s12-8.9,21.8-16.8
	s17.1-21.6,21.6-28.6s7.1-20.3,3-25s-9.3-6.1-9.3-6.1s-11.3,6.4-10,10.1s-5,1.8-5,1.8l-3.3,4l5.3-0.5l-4.3-1l2.3-2.5l15,2l-2.5,1.8
	l-10.5-0.3L76,657.6l1.3,12L189,512.4c0,0-26.3,45.8-26.8,54.8s-7,31.3-16.3,45.5s-7.3,24-6.8,29.5s7,10.5,25.5,24
	s51.8,14.5,46.8,13.8s-23.8-8.3-23.8-8.3s7,0.3,17.5,0s20-0.3,7.5-5.3S201,653.6,201,653.6l4.3,9.3c-11.3-1.8-26.3-22.5-31.5-29
	s-5.5-4.8-11.3-3.8s-15.7,9.3-15.7,9.3s0.7-9.3,1.5-15.5s21-42.3,21.5-45.5s-5-7,1-9.8s20.2-17.5,31.5-31s13.5-28.1,12-35.4
	s-7.8-13.1-14.6-13.7l2.1-2l-0.8-1.6l1.5,1.1l1.5-1.4l-0.8-1.4l1.7,0.9l1.2-1.2l-1.5-2l1.8,1.5l1.7-0.9l-2.1-4.1l0.7-1.8l0.6,2.5
	l0.8-2.3l-0.5,2.9l1.6-2.4l-0.4,3.6l2.7-4.5l-5.3-1l-13.7,20.8c0,0,2.8-5.4,5.6-5.8c2.8-0.3,18.8-16.2,20.3-17.5
	c3.3,2.7,23.1,7.6,21.4,7.6c-1.8,0-19.4-11-17.8-11.3c1.6-0.3,6.6-17.1,6.6-17.1s-0.9-2.4-1.3,4.1c-0.4,6.5-4.5,12.1-4.5,12.1
	s-1.6,0,8.4-7.9c10-7.9,17.4-1.4,13.4-2.8s-10.1,0-10.1,0l19.7-16.1l0.8,4.1l4.6,10.4l-4-12.5l3.1,8.3l-1.4-8.1l3.1,6v6.3l1.1,3.9
	l2.4,1.1h2.4l1-1.4l2.4,0.9l-0.5-1.3l4.1,0.6l-3.4-1.8l7.4,1.1l-6-2l9.4,1.3l-7.9-2l10.9,1.1l-9.8-2l13.4,1l-12.3-1.8l16.8,0.6
	l-15.3-1.6l19.3,0.3l-16.5-1.4l21.6,0.3l-17.4-1.3l23-0.4l-20.6-1l24.1-0.6l-22.4-1.1l20.4-0.6l-21-0.5c0,0-2.1,3.1-9,4.9
	s-8.4,6-12.1,7s-3.8-0.9-3.8-0.9s0.8-14.3-4.6-16.5c-9.5-4.1-4.7,16.8-4.7,16.8c-6.9,5-11.4,11.1-10.5,19.8l-0.1-5.3l1.3-4.1
	c0,0,9.5-10.9,9.4-10.4s4.5,7.5,4.5,7.5s-2-0.6-4.8-8.1s0-14,0-14l-0.8,2.6c0,0-10.8,17.5-11.9,23.6c-0.5,2.8,2.3,10.7,1.2,12.8
	c-7.3,12.8-1,22.3-1,22.3s-1,1.3,3.2-6c6.3-11.1,7.9-7.3,7.9-7.3l0.5-1.9l7.9,6.8c0,0-9.5-10.9,3.8,1.3s23,5.3,23,5.3l0.8-1.5
	l1.6,1.2l18.1-14.5l1-12l-0.1,7.6c0,0,1.3,7.5,1-2.4c-0.3-10.4,3.4-11.5,3.4-11.5l-1.3-3.8l6.9-0.7l3.3-2.8l2.6,5l0.9-6.3l-3.8-3.1
	l3.8,3.1l-0.9,6.3l-2.6-5l-3.3,2.8l-6.9,0.7l1.3,3.8c0,0-0.3-3.3-3.7,3.3c-3.3,6.5-0.8,7.6-1.4,12.8s-15.9,14.2-15.9,14.2l-4.5,0.4
	l0.7-1.8l-6.9-0.2c0,0-3.2-9.5-6.2-16.2s-8.8-12.5-8.8-12.5l0.2-1.9l21.7-4.1l11.2-9.8c0,0-19,6.7-29.7,7.2c-10.7,0.5-7.2-2-8.8-2.8
	c-1.7-0.8-10.3-20.6-3.7-17.5c14.8,6.9,68.7,5.7,68.7,5.7l-15.3,1l7,6.7l-3.5-4l-14.7,3.8l-11.2,9.8c0,0-5.8,0-3.7,0.7
	c2.2,0.7,6.3,14,6.3,14l-7.2,7.8l0,12.7l-10.5,0.9l15.1-1.3c0,0-2,4.2-2.6,4.8c-0.2,0.2,2.4,0.4,2.2,0.5c-0.3,0.2-2.9-0.2-3.3-0.1
	c-2.5,1-6.5,1.2-11.6-0.5c-5.9-1.9-7.9-9-7.9-9s-14-6.1-12.1-6.7c5-1.6,6.9-15.6,6.9-15.6s-1.1,7.2-2.6,10.5l-9.4,10.8l1.6-1.8
	c0,0,27.8,14.4,20.9,10s-7.8-17.5-8.4-19.8s0-10.5,0-10.5l4.5-3.4l-3.3-4.5l-4,2l3,3l-3-3l1.3,5.8l-3-3.3l-11.3,7.3l-6.3,11
	c0,0-4.3,12.8,0.8,18c0,0,4.8-8.5,7-10.3c5.7-4.4-10.5,73.5-10.5,73.5l3.3-0.3c0,0-6,3-3.3,0.3s9.8-59.5,8.8-54s-17.3,28-17.3,28
	s-16.8,24-27.3,59c-11.4,38,6.1,56.9,6.1,56.9s9.1-6.7,11.9-8.9c3.1-2.5,14.1-12.1,17.8-22.9c0,0-1.3,6.1,1.3,10.2
	c1.6,2.7,9.3,14.2,13.9,19.3c4.7,5.2,12.9,9.5,12.9,9.5s2.8-5.3,6-8.4c3.2-3.2,9.8-20,9.8-20l8.7,15.8c1.7-5.2,20.6-25.5,18.1-18.8
	l-19.2,29.7l22-30.8l-27.2,42.2l15-23.5l14.5-20l-31.5,50.5c0,0,3-9.5,14.7-22.3c24.5-26.9,20.7-45.3,20.7-45.3s-11,1.6-19.3,1.5
	s-10.6-6.1-12.6-6.6c-1.5,0.1-1.4,1.3-10.6-0.1c-13.8-2-13.1-18.9-13.1-18.9s-1,0.5,2,9.6c5.2,15.8,26.4,52.9,26.4,52.9l1.4-2.7
	c0,0-12.1-55.4-2.6-52.9c13.4,3.5,25.4-2,25.4-2l-6.2-10.5l-4-4.5l0.8-5.6l2.2,2.2l2.5,8.5l4.7,10c0,0-6.5,2.3-9.8,3.4
	c-0.6,0.2,0-14.6-0.6-14.4c-0.9,0.3,1.4,14.2,0.6,14.4c-1.1,0.3-2.8,0.7-3.6,0.8c-4,0.5-9.3-2-12-2.3s-5,1-7.3,1s-13-4-18-6.8
	c-3.2-1.8-4.7-2.8-5.3-3.3c-0.3-0.3,2-6.2,2-6.2s-2.6,6.4-3.4,6.5c-0.9,0.1-2.6-0.5-5.8-3.7c-3-3-4.1-5.6-4.5-7.3
	c-0.3-1.5,2.6-9.2,2.6-9.2s-2.7,7.5-3.6,7.8c-0.6,0.2-1.4,0.2-2.8-0.3c-3.5-1.3-2.3-7.5-2.3-7.5l5.3-3.3l5.3-70.8
	c0,0-1.3,15.5-1.5,32s1,41.5,2,44.8c0.3,0.9,1.8,2.6,3.8,4.4c0.5,0.4-1.4-37.8-0.8-37.4c0.6,0.5,1.4,37.8,2,38.3
	c4.5,3.6,11.5,9,11.5,9l18.5-1.3l-3.5-36.7l3.5,36.7l5.8-0.4c0,0-3-23-4.5-29.8s3.3-2.4,3.3-2.4l-3.1-0.4c0,0-2.1-3.5-2.6-18
	s0.8-18.3,1.6-15c0,0,1,9.8,1,15.5s4.8,25,4.8,25l18.7-30.1l0.4-8.1l-8.5-11.2l4,4.8c0,0-2.3-8.5,2.1-10.1c6.3-1.5,9.2,12.3,8.9,9.4
	c-0.3-2.9-6-9.5-6-9.5l4.7-4.2c0,0,10.5,18.4,12.5,19.9s6.9,0.3,6.9,0.3c-4.1-0.4-8.2-2.7-12.4-5.8l0.5,6.5l7.7,6.5
	c0,0-2.5-3.2-3.5-4.3c-1-1.2-10.3-21.8-10.3-21.8l3.3-0.7c0,0,5.8,7,14.7,9.8c-6.4-1.9-14.4-12.3-14.4-12.3l-2.7,2
	c0,0,0.2,13.6,0.4,12.3c0.2-1.3-2.4-7.3-2.4-7.3s2.5,6.5,2.3,8.8c-0.2,2.3-3,5.3-4.7,8.7c-1.7,3.3-20.5,34.7-20.5,34.7
	s4.1-8.2,6.7-9.2c10.5,1.3,12,6,16.2,18.2c4.2,12.2,1.3,17.5,5.5,27.8c4.2,10.3,5.2,21.8,4.7,24.3s-9.8,25.3-9.8,25.3
	c-3.3,9.5-12,17.3-14.7,20.5s-15,22-15.8,29.9c-12.7,0.8-8.7-2.5-8.7-2.5c16.7-28.2,39.4-55.8,38.6-66.3c0,0-22.4,15-27.8,29.4
	s-12.9,30.5-13.1,34.4s2.3,2.5,2.3,2.5s-0.8,3.4,2.4-11.1c3.3-15.2,21.5-43.4,30.8-51.5s6.4-12.9,6.4-12.9
	c-4.2-24-8.1-40.8-11.9-49.8l-2.5,16.8l-2-5.7c0,0,2,7,0.3,7s-3.4-5-3.4-5s0,0,2.4,5c-5.3-0.3-6.3-6.7-6.3-6.7s3.3,5.7,1.7,5.7
	c-1.7,0-5.3-5.3-5-10.7c0.3-5.3,4-11.3,4-11.3s-0.7-4,3.3-4s6.4,5.7,11.4,18.3s12.3,47,5,61.3c-7.3,14.3-23,30-31.3,45.7
	c-8.3,15.7-4.7,11.7,8.3,11s26.1-8.6,26.1-8.6l-2.4-1.1l-6.7,4.7l1-18c0,0,11-15,19.7-15c0,0-0.7,16-2.3,19.7c-1.7,3.7-2.3,3-2.3,3
	s-10,9.7-15,15c-5,5.3,0,5.7,0,5.7s15.3-16,20-17.7c4.7-1.7,10.7-1,16.6-18.5c6.1-17.9,6.4-44.5,6.1-39.2c-0.3,5.3,11,28.7,25,35.7
	c5.7-3.7,15.3-28.6,15.3-28.6l-1.3,8.8l-39.3-18.5l52,39l-51.7-44.8l49,40.2l-49.8-44.9l47.1,38.6l-46.2-30l-0.5-11.9l46.3,37.5
	c0,0,7.9,17.1,5.7,15.3c-11-8.5-52.6-51.9-53-56.6c-0.7-7-10.3-42.4-8.3-51.7s0.3-34,0.3-34l-8.7-27c0,0,8.3,25.3,9.3,20.7
	s0-21-9.1-23.3c5.1,1.5,36.2-35.8,36.2-35.8s-9,85.9,5.5,136.9c0,0,5,47.5,54,78v-27.5c0,0,6,12.5,33,33c0,0,23.5-10,6.5-55
	c0,0,20,23.5,55,42.5c0,0-3-27-8-38s-27.8-48.9-51.8-108.4s-17.8-129.5-17.8-129.5l1.1,50.9c0,0,0,0,27.5,28c41.4,42.1,49,77,49,77
	l-34,14c0,0,37-27.5,17.5-54s-30.5-58.5-46-77.4s-17-49.8-16.2-59.1s-5.4-47-4.7-39.8c0.9,8.3-29.8,71.7-39.7,77.3l3.3-4.8
	l-0.6-10.5l-3.8,2.8l-9-65.1l7.6-21.7l1.8,9.3l9.3-19l-0.8,12.5l11.8-19.9l-12.8,59.9l9.5-52l-8.5,12l-0.5-9.8l-4.5,7.8l13.8-36
	l-1.8,19.5l5.5-7.5l-1.3,11.3c0,0,4.5-5.8,5-5s-8.8,32.3-8.8,32.3l10-17.8c0,0-25.8,59.3-27.5,62.3s0.2,15.7,0.2,15.7
	s4.5-5.2,11.3-14.4c7.1-9.7,28.5-79.5,28.5-79.5s-1.3,20.3,0.5,26.8s-17.3,54-17.3,54l-0.3,7.5c0,0,6.8-12,8-15.5s16.3-47,15.5-48.8
	s-5.3,1.5-5.3,1.5c0.4-20.2,0.1-39.6-1.3-58l-11,17.3c0,0,1.3-6.5,0-6.8s-3.8-12-3.8-12l-3.3,3.5v-6.5c0,0-14,9-18.8,13
	s-10.8,26.3-10.8,26.3s3-16.8,1.3-16.3s-10.3,31-10.3,31s-10.8-14.5-2.5-6.8s15.8,49.8,16.8,63.5s14,67-14.8,134
	c0,0,16-19.8,13.3-108c0,0-0.7,11.6-4.8,25.5c-0.2,0.7,5.3-2.2,5.1-1.5c-0.2,0.7-5,2.1-5.3,2.8c-5.5,17.3-16.8,40.5-33.5,58.2
	c-32.3,34-80,52.8-96.3,54c6.3,0,30.5-20.5,38.8-25.3s57-66,57-66s-6.2,8.2-15.5,15c-9,6.6-11.8,9-56.8,32.5c0,0,22-5.5,59.5-48
	s32.7-99.4,32.5-108.5c-0.3-10.5-25.3-50.3-46.5-61c26.8,13.8,69.5,73,28.5,140.3c-12.3-10.3-17-29.4-17-29.4s-21.8-7.3-51.5,0.9
	c28.5-9.3,69,3,69,3s-4-1-9.3-2.5s-8.2-1.4-8.2-1.4l11.2,25.4l-8,4.3c0,0-0.8,18.8-10.5,25.5c4.3-2,5.3-16,5.3-16l-10.8-3.3
	c0,0,0.3-2.2,0.3,4.3s-2.6,7.5-4.6,8.2s-4.8-4.5-2.8-15c0,0-5.5-1.5-10.8-2s1.3,22.8,1.3,22.8s-5.8-12-5.8-18s1.8-20.3,8.5-21.3
	c6.7-0.9,36.5,9.5,36.5,9.5s-21.3-5.3-32.3-7.5s-23.3-0.3-23.3-0.3s34.3,0.5,62.5,12.8c-22.3-11.3-68-11.8-68-11.8
	s52.8,1.3,73.3,16.5c-9.3-5-62.8-21.8-88.5-12c0,0,12.8-2.5,31-0.5c0,0-6.3,20.8,4.8,34.3c0,0,14.3,7.5,25.8,0.5
	c0,0,11-13.5,10-26.3c0,0,17.5,4.3,16.5,5.8s-7.8,9.5-7.8,9.5l12.5-8.8c0,0-8.8-10.8-13.6-12.3c-5.8-1.5-16.7-35.2-16.7-35.2v31.8
	c0,0-11.3-7.8-18-36v29c0,0-12-28.5-6-58.5c-10.5,25.5-16,55.8-18,58s-21.8,0.8-21.8,0.8s-8.3-3.3-15.8-22.5v18.3
	c0,0-17.8-42.8-1-98.8l-4,15.8c0,0-7.8,18.3-22,58c0,0-2.5-17.3,1.5-35.5c-7.5,7.5-27.6,59.1-28.3,58c-4.4-7.1-3.4-36.6-0.1-53.3
	c9.6-53.9,38.1-77.7,87.4-77.4c-46.5,3-60.5,20-66,24s-15,31-21,52s-0.3,54.8-0.3,54.8l6-15.3l4.3,28.8c0,0-4,2-1,11.5
	s14.5,26.5,42,37.4c0,0-15.8,13.6-19.8,14.1c-21.8-9-19.5-41.5-19.5-41.5l-3,8.6l-1-14.1l-0.3,52.1c-7.2-7.8-13-17.8-17.9-29.3
	c0,0,12.4,35.2,45,49.5c0,0,0.5,2.3-21.8-7.8s-22.8-26.8-21-12.8s15.8,28.8,19.3,26s4-8,2.3-4.8s-7.3,1.5-8.8,1.5
	c-9.5-5.8-17-26.5-22.5-40.3s-1.8-69.8-1.8-69.8s-14.3,54.3-4.3,94c-5.3-10-7-38-5-65s15-81.8,30-111.3c0,0-13,13-39.5,56.3
	s-16.6,50.3-16.5,60.5s17.8,10.5,17.8,10.5s-18-14.8-19.8-26.3s7.5-33.5,14.8-51.8s49-66.3,49-66.3s-2.8,5.5-7,5.5
	s-9.5-11.8-9.5-11.8l3.5,1c0,0-4-6.3-6.5-25s-0.5-29-0.5-29c2,53.2,7.3,48.8,9.5,54.8s6.8,3.5,11.5,2.3s-2.3-21.5-1.8-27
	c3.3,2,3.5,25.5,3.5,25.5l16.3-15.3l-8.3-12.3l-13.9-1.2l-2,3l-4-3c0,0,0.5,3-1.3,3.3s-6.5-16.8-5-17.3s5.3,5,6.3,4.8s0-2.8,1-4.5
	s12,7.8,8.5,5s-6.1-13.1-2-6.7c3.8,5.9,11.8,11.8,11.8,11.8l-5.3-19.3l-13.1-14.9l-0.5,13l-3.5-2.3l-1.5,4.5l-7.3-7.5l-1.5-23.5
	l19,15.3l16.8,16l-10.8-13l9.8,40.5c0,0,1.3,3.5,6.8,8.3c1.8-4,20.5-15,20.5-15l-20.8-3l-3.3-15.3l13,12.1v-4.9l11,9.8
	c0,0,40.1-19.3,69.1-11.3c3.3,0-11.3,12.7-12.7,16.3c-1.3,3.7,34.3-31.3,57-26.7c5.7,1.7,36.3,40.7,38.3,42.4s27-55.8,27-55.8
	s5.3,15.7,4.7,24.3c-0.7,8.7-0.1,1.7-0.1,1.7s5.3,7.6,5.4,17.3s1.3-14.3-2-16.7c-3.3-2.3-8-26.7-8-26.7l-27,55.8
	c0,0-10.6-7.4-17.7-12.8c-20.2-13.8-55-15.2-55-17.6c0-3.5,51.2,15.2,51.2,15.2c-4.8-5.4-9.3-26.9-44.5-25.2
	c-6.3,0.3-9.9,9.7-16.7,8.3C222.7,206,193.5,320.3,221.3,338.4z"/>
</svg>
